Coordinates
version=1
nRows=17
nColumns=40
inDegrees=yes

Units are S.I. units (second, meters, Newtons, ...)
Angles are in degrees.

endheader
time	pelvis_tilt	pelvis_list	pelvis_rotation	pelvis_tx	pelvis_ty	pelvis_tz	hip_flexion_r	hip_adduction_r	hip_rotation_r	knee_angle_r	knee_angle_r_beta	ankle_angle_r	subtalar_angle_r	mtp_angle_r	hip_flexion_l	hip_adduction_l	hip_rotation_l	knee_angle_l	knee_angle_l_beta	ankle_angle_l	subtalar_angle_l	mtp_angle_l	lumbar_extension	lumbar_bending	lumbar_rotation	arm_flex_r	arm_add_r	arm_rot_r	elbow_flex_r	pro_sup_r	wrist_flex_r	wrist_dev_r	arm_flex_l	arm_add_l	arm_rot_l	elbow_flex_l	pro_sup_l	wrist_flex_l	wrist_dev_l
     21.40764286	     -3.49660020	     -3.48006089	      8.07261761	      0.92230305	      0.92871970	      0.42400290	      8.13012504	      1.47214001	    -16.96268151	     16.93210575	     16.93210575	     13.99961770	     -1.03460503	     -3.26587751	     29.70491330	    -10.21160495	      0.88333461	     23.83973506	     23.83973506	      8.86479207	     -6.40344714	      6.58578794	    -11.43241731	      6.37170402	      4.80736047	     33.29489026	    -19.61736532	     -6.63450350	     68.44912707	     45.36349632	      0.00000000	      0.00000000	     -4.42569337	     -7.11779801	    -10.97116260	     24.08091851	     46.31944180	      0.00000000	      0.00000000
     21.41028571	     -3.47793680	     -3.47173485	      8.14046965	      0.92206274	      0.92876253	      0.42367929	      8.00520693	      1.48123829	    -16.92969768	     16.84547915	     16.84547915	     14.05463519	     -1.13679604	     -3.14413510	     29.70669846	    -10.14007220	      0.87963305	     23.70790613	     23.70790613	      8.81973892	     -6.32649062	      6.43373176	    -11.49086740	      6.37435703	      4.83656273	     33.23436417	    -19.68741451	     -6.63978534	     68.95054104	     45.34872353	      0.00000000	      0.00000000	     -4.66379242	     -7.20564192	    -10.58665196	     24.77266849	     46.23844578	      0.00000000	      0.00000000
     21.41292857	     -3.54277782	     -3.47403797	      8.22982263	      0.92175638	      0.92863879	      0.42330605	      7.97639130	      1.46630978	    -17.00104523	     16.74757367	     16.74757367	     13.79329114	     -1.24566991	     -3.96546501	     29.90813980	    -10.06723166	      0.85426894	     23.78692174	     23.78692174	      9.20570523	     -6.06243017	      7.19736660	    -11.36944168	      6.36552529	      4.84316064	     33.33374880	    -19.56044056	     -7.09019381	     68.61491087	     45.39884477	      0.00000000	      0.00000000	     -3.46702085	     -6.60737113	    -16.41882252	     22.35894536	     47.47433467	      0.00000000	      0.00000000
     21.41557143	     -3.53478172	     -3.43556596	      8.28943219	      0.92148533	      0.92867373	      0.42296609	      7.89915810	      1.43224363	    -16.92121862	     16.74105345	     16.74105345	     13.90839335	     -1.40366145	     -3.72016939	     29.87702110	     -9.93621963	      0.90255164	     23.59693493	     23.59693493	      9.08138627	     -6.20526253	      7.01692885	    -11.44006068	      6.33366016	      4.88000112	     33.25062217	    -19.65599088	     -6.99133830	     69.22839921	     45.37402213	      0.00000000	      0.00000000	     -3.84147079	     -6.71150117	    -15.57882036	     23.39900629	     47.24800659	      0.00000000	      0.00000000
     21.41821429	     -3.56626528	     -3.44698443	      8.37640943	      0.92120212	      0.92861919	      0.42257368	      7.83157658	      1.41457916	    -17.08725428	     16.67222909	     16.67222909	     13.93439078	     -1.23313824	     -3.74258680	     29.97561625	     -9.84885058	      0.96526347	     23.54652658	     23.54652658	      9.08981190	     -6.24973661	      7.01654191	    -11.36498055	      6.35183921	      4.76182454	     33.46779188	    -19.49795627	     -7.10584597	     68.81066960	     45.39514010	      0.00000000	      0.00000000	     -3.69330911	     -6.81122140	    -15.08418524	     22.77519344	     47.11823363	      0.00000000	      0.00000000
     21.42085714	     -3.53693411	     -3.41526870	      8.43120508	      0.92095398	      0.92869099	      0.42225861	      7.71180597	      1.40741283	    -16.97122673	     16.62094392	     16.62094392	     13.99131618	     -1.47136808	     -3.56766828	     29.91435480	     -9.74219498	      0.96879587	     23.36052830	     23.36052830	      8.94552349	     -6.36360022	      6.74808364	    -11.47414664	      6.31537898	      4.81162263	     33.34573139	    -19.60175422	     -7.04845278	     69.45030169	     45.36742236	      0.00000000	      0.00000000	     -4.16844566	     -6.91910474	    -14.36213619	     24.10640266	     46.91574166	      0.00000000	      0.00000000
     21.42350000	     -3.57264339	     -3.41985245	      8.50420571	      0.92063304	      0.92861729	      0.42186230	      7.73203332	      1.39290366	    -16.91575767	     16.69652478	     16.69652478	     14.06410603	     -1.69143138	     -3.46615926	     29.95388290	     -9.63532531	      1.05866927	     23.20947071	     23.20947071	      8.86583987	     -6.53012804	      6.63553796	    -11.46880927	      6.34417383	      4.83830066	     33.32026579	    -19.74031412	     -7.03740877	     69.95025041	     45.34948088	      0.00000000	      0.00000000	     -4.47974158	     -7.00298616	    -13.70847417	     25.07514679	     46.75510417	      0.00000000	      0.00000000
     21.42614286	     -3.60869821	     -3.42530643	      8.58385193	      0.92042062	      0.92858593	      0.42146706	      7.57278386	      1.38464922	    -17.14769755	     16.44373881	     16.44373881	     13.96465744	     -1.35295507	     -3.77786998	     30.10596311	     -9.55083109	      1.06650827	     23.30071414	     23.30071414	      9.06519820	     -6.55591346	      7.09413948	    -11.33489846	      6.34468342	      4.79377002	     33.47729832	    -19.50002699	     -7.34556002	     69.25808183	     45.38711775	      0.00000000	      0.00000000	     -3.77695624	     -7.04096010	    -13.84824092	     23.05602099	     46.80267802	      0.00000000	      0.00000000
     21.42878571	     -3.57958769	     -3.39542805	      8.62951009	      0.92020696	      0.92866359	      0.42115047	      7.44434071	      1.38901579	    -16.98513915	     16.37616649	     16.37616649	     14.00403361	     -1.62412752	     -3.64843645	     30.04450437	     -9.45072737	      1.05696451	     23.14741203	     23.14741203	      8.96538420	     -6.68418774	      6.91307776	    -11.42452707	      6.30466507	      4.84451773	     33.35812486	    -19.58398596	     -7.30618316	     69.82787903	     45.36366238	      0.00000000	      0.00000000	     -4.16855812	     -7.14107832	    -13.36712989	     24.18467727	     46.67564402	      0.00000000	      0.00000000
     21.43142857	     -3.56361789	     -3.40303005	      8.69109049	      0.91997966	      0.92870904	      0.42080676	      7.29612773	      1.42413653	    -16.93924090	     16.23489254	     16.23489254	     13.99952377	     -1.74659562	     -3.57387708	     30.03780976	     -9.38484634	      1.04395235	     23.05099171	     23.05099171	      8.89281730	     -6.78908867	      6.77748834	    -11.47030060	      6.31919747	      4.84466378	     33.29950044	    -19.61037501	     -7.30950739	     70.21032813	     45.34894767	      0.00000000	      0.00000000	     -4.44317969	     -7.22949995	    -12.94297774	     24.94151995	     46.56987379	      0.00000000	      0.00000000
     21.43407143	     -3.55010305	     -3.40988421	      8.75372384	      0.91976413	      0.92873038	      0.42045941	      7.15660839	      1.45115623	    -16.91958711	     16.10836328	     16.10836328	     13.99170402	     -1.82119382	     -3.55974202	     30.04495018	     -9.31821697	      1.03095294	     22.98711515	     22.98711515	      8.84753113	     -6.89198585	      6.63462778	    -11.50398157	      6.33070783	      4.83967804	     33.27683380	    -19.59541169	     -7.33475431	     70.46291526	     45.33903664	      0.00000000	      0.00000000	     -4.64868848	     -7.31510818	    -12.59327394	     25.50400801	     46.48173813	      0.00000000	      0.00000000
     21.43671429	     -3.54285587	     -3.42121586	      8.81397362	      0.91958112	      0.92876588	      0.42009265	      6.99264049	      1.47840964	    -16.95574916	     15.92751036	     15.92751036	     13.95907605	     -1.81139602	     -3.57450124	     30.05504272	     -9.25195978	      1.02954627	     22.93206064	     22.93206064	      8.81247741	     -7.02141322	      6.56216568	    -11.50040488	      6.34186199	      4.80763466	     33.26521681	    -19.55491656	     -7.38575338	     70.61034348	     45.33367581	      0.00000000	      0.00000000	     -4.76122039	     -7.39372683	    -12.31612801	     25.80748884	     46.41285408	      0.00000000	      0.00000000
     21.43935714	     -3.65494304	     -3.41666429	      8.88829587	      0.91925471	      0.92859662	      0.41964955	      7.05380318	      1.39167210	    -17.21217589	     15.95020111	     15.95020111	     13.95438583	     -1.50915048	     -3.92116674	     30.27637118	     -9.13018253	      1.06469310	     23.04359480	     23.04359480	      9.16303245	     -7.07818947	      7.48355439	    -11.30665581	      6.32897703	      4.94023972	     33.30923722	    -19.54602251	     -7.79844961	     70.12772471	     45.36129477	      0.00000000	      0.00000000	     -3.67426295	     -7.26872078	    -13.42376742	     23.31911590	     46.63631600	      0.00000000	      0.00000000
     21.44200000	     -3.67014632	     -3.41678906	      8.95327956	      0.91899605	      0.92857765	      0.41923353	      6.97433836	      1.37165016	    -17.29962142	     15.89271367	     15.89271367	     13.96799681	     -1.44217685	     -3.97377458	     30.28215916	     -9.00789327	      1.18259937	     22.94284961	     22.94284961	      9.04960262	     -7.43171069	      7.41636621	    -11.31545407	      6.33376427	      4.85931211	     33.32049081	    -19.46972845	     -7.81673364	     70.37564767	     45.34362110	      0.00000000	      0.00000000	     -3.88558405	     -7.26988943	    -13.74991499	     23.90864845	     46.64204206	      0.00000000	      0.00000000
     21.44464286	     -3.69621359	     -3.43102346	      8.99730167	      0.91880095	      0.92858303	      0.41894993	      6.87534522	      1.40825243	    -17.25852895	     15.76206521	     15.76206521	     13.99837177	     -1.50960266	     -3.80905272	     30.38024977	     -8.98017136	      1.06687557	     23.03315424	     23.03315424	      9.42695503	     -7.27525054	      8.24037538	    -11.29723742	      6.32927616	      5.07961716	     33.02015929	    -19.57810142	     -8.15520858	     70.88754315	     45.34863212	      0.00000000	      0.00000000	     -3.31485659	     -6.99463999	    -16.75414880	     23.23690948	     47.18269107	      0.00000000	      0.00000000
     21.44728571	     -3.70815078	     -3.41722836	      9.05493016	      0.91856522	      0.92857084	      0.41851008	      6.77987230	      1.37223818	    -17.34173297	     15.69110172	     15.69110172	     14.02116792	     -1.41555857	     -3.87983949	     30.35463091	     -8.85442040	      1.13703792	     22.90392822	     22.90392822	      9.19771171	     -7.60414136	      7.84466593	    -11.29133674	      6.30806061	      4.91394863	     33.18481693	    -19.45362214	     -7.99166293	     70.70381440	     45.34066890	      0.00000000	      0.00000000	     -3.54830081	     -7.06214613	    -16.45447898	     23.68693593	     47.02876984	      0.00000000	      0.00000000
     21.44992857	     -3.72050934	     -3.42266856	      9.10148908	      0.91836052	      0.92857373	      0.41814972	      6.67744422	      1.37091459	    -17.41179897	     15.59694965	     15.59694965	     14.03659835	     -1.32828807	     -3.90499219	     30.36333352	     -8.78164353	      1.12492657	     22.84882557	     22.84882557	      9.13729104	     -7.76630333	      7.77496751	    -11.27784928	      6.30960448	      4.90050452	     33.21628139	    -19.42440377	     -7.96720587	     70.72587972	     45.33150546	      0.00000000	      0.00000000	     -3.59632474	     -7.11344080	    -16.23877872	     23.82649569	     46.91026211	      0.00000000	      0.00000000
